<?xml version="1.0" encoding="UTF-8" standalone="no"?>
<!-- Generator: Adobe Illustrator 15.0.0, SVG Export Plug-In . SVG Version: 6.00 Build 0)  -->

<svg
   xmlns:dc="http://purl.org/dc/elements/1.1/"
   xmlns:cc="http://creativecommons.org/ns#"
   xmlns:rdf="http://www.w3.org/1999/02/22-rdf-syntax-ns#"
   xmlns:svg="http://www.w3.org/2000/svg"
   xmlns="http://www.w3.org/2000/svg"
   xmlns:sodipodi="http://sodipodi.sourceforge.net/DTD/sodipodi-0.dtd"
   xmlns:inkscape="http://www.inkscape.org/namespaces/inkscape"
   id="Layer_3"
   enable-background="new 0 0 200 200"
   xml:space="preserve"
   viewBox="0 0 200 200"
   version="1.1"
   y="0px"
   x="0px"
   sodipodi:docname="good.svg"
   inkscape:version="0.92.4 (5da689c313, 2019-01-14)"><defs
   id="defs26" /><sodipodi:namedview
   pagecolor="#ffffff"
   bordercolor="#666666"
   borderopacity="1"
   objecttolerance="10"
   gridtolerance="10"
   guidetolerance="10"
   inkscape:pageopacity="0.00392157"
   inkscape:pageshadow="2"
   inkscape:window-width="1920"
   inkscape:window-height="986"
   id="namedview24"
   showgrid="false"
   inkscape:zoom="1.3488062"
   inkscape:cx="77.556099"
   inkscape:cy="45.322552"
   inkscape:window-x="-11"
   inkscape:window-y="-11"
   inkscape:window-maximized="1"
   inkscape:current-layer="Layer_3" />
<path
   stroke-miterlimit="10"
   d="m 4.5997312,85.432038 c 0,0 -0.448,6.51801 6.0689998,8.76601 6.517,2.248 16.407,2.02 16.407,2.02 0,0 14.834,7.191002 20.678,15.058002 5.844,7.867 12.585,20.677 12.585,20.677 0,0 2.248,2.696 5.395001,4.046 3.145997,1.34899 20.901998,7.416 20.901998,7.416 0,0 11.013996,4.49599 18.42999,11.46299 7.417,6.968 8.991,10.339 10.114,14.16 1.123,3.82001 2.248,5.169 2.248,5.169 l 76.866,-7.19199 c 0,0 -7.866,-15.73201 -6.743,-21.57601 1.123,-5.84399 1.123,-15.059 4.72001,-22.026 3.59699,-6.967 4.943,-43.377002 -2.697,-62.481002 -7.64001,-19.104 -3.37101,-23.6 -13.935,-27.86999 -10.564,-4.27 -11.014,6.745 -14.83401,7.41799 -3.81999,0.67301 -3.37099,-11.23799 -11.91199,-12.812 -2.873,-0.52899 -9.617,3.438 -14.38401,10.11301 -2.24799,3.147 0.67401,-13.26001 -14.60899,-11.68701 -7.144,0.73401 -8.765,2.69801 -10.563,9.44001 -1.798,6.74099 -4.495,-11.01401 -15.283998,-10.11401 -7.336001,0.61101 -14.668003,10.54801 -15.732003,26.07101 -1.122998,16.40599 -0.897998,24.947 -0.897998,24.947 l -1.124,17.081 c 0,0 -18.654,-11.463 -25.397,-15.732 -6.742001,-4.27 -21.801,-9.663 -24.947,-9.214 -3.158001,0.44 -23.1619998,1.12 -21.3639998,16.85 z"
   id="path19"
   inkscape:connector-curvature="0"
   style="fill:#ffffff;stroke:#000000;stroke-width:6;stroke-miterlimit:10" />
<metadata
   id="metadata21"><rdf:RDF><cc:Work><dc:format>image/svg+xml</dc:format><dc:type
         rdf:resource="http://purl.org/dc/dcmitype/StillImage" /><cc:license
         rdf:resource="http://creativecommons.org/publicdomain/zero/1.0/" /><dc:publisher><cc:Agent
           rdf:about="http://openclipart.org/"><dc:title>Openclipart</dc:title></cc:Agent></dc:publisher><dc:title></dc:title></cc:Work><cc:License
       rdf:about="http://creativecommons.org/publicdomain/zero/1.0/"><cc:permits
         rdf:resource="http://creativecommons.org/ns#Reproduction" /><cc:permits
         rdf:resource="http://creativecommons.org/ns#Distribution" /><cc:permits
         rdf:resource="http://creativecommons.org/ns#DerivativeWorks" /></cc:License></rdf:RDF></metadata></svg>