<?xml version="1.0" encoding="UTF-8" standalone="no"?>
<!-- Generator: Adobe Illustrator 15.0.0, SVG Export Plug-In . SVG Version: 6.00 Build 0)  -->

<svg
   xmlns:dc="http://purl.org/dc/elements/1.1/"
   xmlns:cc="http://creativecommons.org/ns#"
   xmlns:rdf="http://www.w3.org/1999/02/22-rdf-syntax-ns#"
   xmlns:svg="http://www.w3.org/2000/svg"
   xmlns="http://www.w3.org/2000/svg"
   xmlns:sodipodi="http://sodipodi.sourceforge.net/DTD/sodipodi-0.dtd"
   xmlns:inkscape="http://www.inkscape.org/namespaces/inkscape"
   id="Layer_3"
   enable-background="new 0 0 200 200"
   xml:space="preserve"
   viewBox="0 0 200 200"
   version="1.1"
   y="0px"
   x="0px"
   sodipodi:docname="great.svg"
   inkscape:version="0.92.4 (5da689c313, 2019-01-14)"><defs
   id="defs26" /><sodipodi:namedview
   pagecolor="#ffffff"
   bordercolor="#666666"
   borderopacity="1"
   objecttolerance="10"
   gridtolerance="10"
   guidetolerance="10"
   inkscape:pageopacity="0.00392157"
   inkscape:pageshadow="2"
   inkscape:window-width="1920"
   inkscape:window-height="986"
   id="namedview24"
   showgrid="false"
   inkscape:zoom="1.3488062"
   inkscape:cx="77.556099"
   inkscape:cy="45.322552"
   inkscape:window-x="-11"
   inkscape:window-y="-11"
   inkscape:window-maximized="1"
   inkscape:current-layer="Layer_3" />
<path
   stroke-miterlimit="10"
   d="m 26.449433,7.5139358 c 0,0 -4.925706,4.2921392 -1.907067,10.4899302 3.018638,6.197791 10.173145,13.029856 10.173145,13.029856 0,0 5.404417,15.574027 3.97394,25.269168 -1.430477,9.695141 -5.721908,23.519786 -5.721908,23.519786 0,0 -0.316784,3.495936 0.953887,6.675797 1.270671,3.17844 9.536042,20.023847 9.536042,20.023847 0,0 4.608922,10.96722 4.926413,21.13754 0.317491,10.17173 -0.95318,13.66837 -2.860954,17.16431 -1.907067,3.49523 -2.065459,5.24461 -2.065459,5.24461 l 59.437978,49.26696 c 0,0 5.56211,-16.68631 10.48852,-20.02456 4.92641,-3.33825 11.4424,-9.85424 18.91228,-12.23719 7.46987,-2.38295 34.1674,-27.17694 42.27367,-46.0878 8.10627,-18.91087 14.30406,-19.07138 9.85353,-29.560597 -4.45053,-10.489224 -12.55751,-3.01864 -15.73454,-5.24391 -3.17703,-2.225261 5.56281,-10.330119 0.6364,-17.482504 -1.65746,-2.405577 -9.23128,-4.369213 -17.322,-3.020053 -3.81484,0.635689 9.85283,-8.899646 -2.06616,-18.59408 -5.57059,-4.532554 -8.10557,-4.290017 -14.14426,-0.794081 -6.03798,3.495229 4.60963,-10.966519 -3.65574,-17.959098 -5.61938,-4.755293 -17.83041,-2.91328 -29.55919,7.310777 C 90.183089,46.449357 84.302788,52.647855 84.302788,52.647855 L 71.429909,63.931158 c 0,0 -5.084805,-21.295935 -6.834187,-29.082595 C 62.847754,27.061903 56.01286,12.600156 53.470811,10.693089 50.926641,8.7711718 36.300844,-4.8929593 26.449433,7.5012088 Z"
   id="path19"
   inkscape:connector-curvature="0"
   style="fill:#ffffff;stroke:#000000;stroke-width:6;stroke-miterlimit:10" />
<metadata
   id="metadata21"><rdf:RDF><cc:Work><dc:format>image/svg+xml</dc:format><dc:type
         rdf:resource="http://purl.org/dc/dcmitype/StillImage" /><cc:license
         rdf:resource="http://creativecommons.org/publicdomain/zero/1.0/" /><dc:publisher><cc:Agent
           rdf:about="http://openclipart.org/"><dc:title>Openclipart</dc:title></cc:Agent></dc:publisher><dc:title></dc:title></cc:Work><cc:License
       rdf:about="http://creativecommons.org/publicdomain/zero/1.0/"><cc:permits
         rdf:resource="http://creativecommons.org/ns#Reproduction" /><cc:permits
         rdf:resource="http://creativecommons.org/ns#Distribution" /><cc:permits
         rdf:resource="http://creativecommons.org/ns#DerivativeWorks" /></cc:License></rdf:RDF></metadata></svg>