<?xml version="1.0" encoding="UTF-8" standalone="no"?>
<!-- Generator: Adobe Illustrator 15.0.0, SVG Export Plug-In . SVG Version: 6.00 Build 0)  -->

<svg
   xmlns:dc="http://purl.org/dc/elements/1.1/"
   xmlns:cc="http://creativecommons.org/ns#"
   xmlns:rdf="http://www.w3.org/1999/02/22-rdf-syntax-ns#"
   xmlns:svg="http://www.w3.org/2000/svg"
   xmlns="http://www.w3.org/2000/svg"
   xmlns:sodipodi="http://sodipodi.sourceforge.net/DTD/sodipodi-0.dtd"
   xmlns:inkscape="http://www.inkscape.org/namespaces/inkscape"
   id="Layer_3"
   enable-background="new 0 0 200 200"
   xml:space="preserve"
   viewBox="0 0 200 200"
   version="1.1"
   y="0px"
   x="0px"
   sodipodi:docname="amazing.svg"
   inkscape:version="0.92.4 (5da689c313, 2019-01-14)"><defs
   id="defs26" /><sodipodi:namedview
   pagecolor="#ffffff"
   bordercolor="#666666"
   borderopacity="1"
   objecttolerance="10"
   gridtolerance="10"
   guidetolerance="10"
   inkscape:pageopacity="0.00392157"
   inkscape:pageshadow="2"
   inkscape:window-width="1920"
   inkscape:window-height="986"
   id="namedview24"
   showgrid="false"
   inkscape:zoom="1.3488062"
   inkscape:cx="77.556099"
   inkscape:cy="45.322552"
   inkscape:window-x="-11"
   inkscape:window-y="-11"
   inkscape:window-maximized="1"
   inkscape:current-layer="Layer_3" />
<path
   stroke-miterlimit="10"
   d="m 116.8673,4.254857 c 0,0 -6.51801,-0.448 -8.76601,6.069 -2.248,6.517 -2.02,16.407 -2.02,16.407 0,0 -7.191,14.834 -15.058,20.678 -7.867,5.844 -20.677,12.585 -20.677,12.585 0,0 -2.696,2.248 -4.046001,5.395001 -1.348996,3.145997 -7.415998,20.901998 -7.415998,20.901998 0,0 -4.495996,11.013996 -11.462998,18.429994 -6.967999,7.417 -10.338997,8.991 -14.16,10.114 -3.820001,1.123 -5.168999,2.248 -5.168999,2.248 l 7.191996,76.866 c 0,0 15.732008,-7.866 21.576005,-6.743 5.843997,1.123 15.058999,1.123 22.026002,4.72001 6.966996,3.59699 43.377003,4.943 62.481003,-2.697 19.104,-7.64001 23.6,-3.37101 27.86999,-13.935 4.27,-10.564 -6.745,-11.014 -7.41799,-14.83401 -0.67301,-3.81999 11.23799,-3.37099 12.812,-11.91199 0.52899,-2.873 -3.438,-9.617 -10.11301,-14.38401 -3.147,-2.24799 13.26001,0.67401 11.68701,-14.60899 -0.73401,-7.144 -2.69801,-8.765 -9.44001,-10.563 -6.74099,-1.798 11.01401,-4.495 10.11401,-15.284002 -0.61101,-7.336001 -10.54801,-14.668003 -26.07101,-15.732003 -16.40599,-1.122998 -24.947,-0.897998 -24.947,-0.897998 l -17.081,-1.124 c 0,0 11.463,-18.654 15.732,-25.397 4.27,-6.742001 9.663,-21.801 9.214,-24.947 -0.44,-3.158001 -1.12,-23.162 -16.85,-21.364 z"
   id="path19"
   inkscape:connector-curvature="0"
   style="fill:#ffffff;stroke:#000000;stroke-width:6;stroke-miterlimit:10" />
<metadata
   id="metadata21"><rdf:RDF><cc:Work><dc:format>image/svg+xml</dc:format><dc:type
         rdf:resource="http://purl.org/dc/dcmitype/StillImage" /><cc:license
         rdf:resource="http://creativecommons.org/publicdomain/zero/1.0/" /><dc:publisher><cc:Agent
           rdf:about="http://openclipart.org/"><dc:title>Openclipart</dc:title></cc:Agent></dc:publisher><dc:title /></cc:Work><cc:License
       rdf:about="http://creativecommons.org/publicdomain/zero/1.0/"><cc:permits
         rdf:resource="http://creativecommons.org/ns#Reproduction" /><cc:permits
         rdf:resource="http://creativecommons.org/ns#Distribution" /><cc:permits
         rdf:resource="http://creativecommons.org/ns#DerivativeWorks" /></cc:License></rdf:RDF></metadata><path
   style="fill:#000000;stroke-width:0.74139637;fill-opacity:0"
   d="m 88.184034,190.68421 c -2.676987,-0.37372 -7.146279,-1.5373 -9.931762,-2.58576 -5.400767,-2.03284 -16.869952,-4.05013 -23.067695,-4.05733 -3.407791,-0.004 -12.321036,2.46359 -15.6658,4.33694 -1.252212,0.70134 -1.514193,-1.18951 -4.435046,-32.00987 -1.707321,-18.01539 -3.125242,-33.7653 -3.150934,-34.99981 -0.04293,-2.06279 0.337783,-2.41206 4.701222,-4.31299 8.477578,-3.69323 17.089323,-12.95207 22.863137,-24.581096 1.417199,-2.854376 4.162417,-9.693758 6.100484,-15.198625 1.938068,-5.504868 4.067047,-10.940125 4.731066,-12.078349 0.683807,-1.172144 3.460844,-3.30923 6.404469,-4.928596 16.471873,-9.061617 22.065925,-14.170079 29.477895,-26.919077 3.17814,-5.466578 3.52163,-6.508775 3.52163,-10.685053 0,-10.722337 2.44112,-15.0828612 8.44069,-15.0774114 6.39697,0.00581 9.86287,4.2449964 11.58492,14.1696354 0.80835,4.658819 0.73755,5.243753 -1.41096,11.656611 -2.96356,8.845635 -4.85974,12.453712 -15.84311,30.146407 l -9.20496,14.827927 2.28996,0.515492 c 1.25949,0.283521 11.46475,0.876478 22.67837,1.317684 22.6665,0.891826 28.42494,1.527381 34.52797,3.810815 5.41772,2.02703 10.69721,6.964381 10.69721,10.00398 0,2.993069 -1.56029,4.975733 -6.61949,8.411366 -6.56913,4.46101 -6.56486,7.55988 0.0139,10.07044 4.61802,1.76232 5.8372,3.55069 5.85329,8.58588 0.014,4.38514 -1.97241,7.0102 -6.14534,8.12109 -6.84417,1.82201 -7.38919,4.75858 -1.79377,9.66472 7.97416,6.99186 8.22317,10.88623 0.91709,14.34256 -5.31873,2.51617 -7.05358,4.27403 -7.05358,7.14717 0,2.27977 0.19445,2.51487 6.22369,7.52507 1.8927,1.57281 2.08612,2.10253 1.63864,4.48781 -0.88651,4.7255 -3.3922,6.83363 -10.26872,8.63945 -3.36582,0.88389 -9.95639,2.90846 -14.64573,4.49903 -4.68933,1.59057 -11.52871,3.43393 -15.19862,4.09634 -7.84205,1.41546 -31.064572,2.05786 -38.230086,1.05755 z"
   id="path35"
   inkscape:connector-curvature="0" /><path
   style="fill:#000000;fill-opacity:0;stroke-width:0.74139637"
   d="m 88.184034,190.68421 c -2.676987,-0.37372 -7.146279,-1.5373 -9.931762,-2.58576 -5.400767,-2.03284 -16.869952,-4.05013 -23.067695,-4.05733 -3.407791,-0.004 -12.321036,2.46359 -15.6658,4.33694 -1.252212,0.70134 -1.514193,-1.18951 -4.435046,-32.00987 -1.707321,-18.01539 -3.125242,-33.7653 -3.150934,-34.99981 -0.04293,-2.06279 0.337783,-2.41206 4.701222,-4.31299 8.477578,-3.69323 17.089323,-12.95207 22.863137,-24.581096 1.417199,-2.854376 4.162417,-9.693758 6.100484,-15.198625 1.938068,-5.504868 4.067047,-10.940125 4.731066,-12.078349 0.683807,-1.172144 3.460844,-3.30923 6.404469,-4.928596 16.471873,-9.061617 22.065925,-14.170079 29.477895,-26.919077 3.17814,-5.466578 3.52163,-6.508775 3.52163,-10.685053 0,-10.722337 2.44112,-15.0828612 8.44069,-15.0774114 6.39697,0.00581 9.86287,4.2449964 11.58492,14.1696354 0.80835,4.658819 0.73755,5.243753 -1.41096,11.656611 -2.96356,8.845635 -4.85974,12.453712 -15.84311,30.146407 l -9.20496,14.827927 2.28996,0.515492 c 1.25949,0.283521 11.46475,0.876478 22.67837,1.317684 22.6665,0.891826 28.42494,1.527381 34.52797,3.810815 5.41772,2.02703 10.69721,6.964381 10.69721,10.00398 0,2.993069 -1.56029,4.975733 -6.61949,8.411366 -6.56913,4.46101 -6.56486,7.55988 0.0139,10.07044 4.61802,1.76232 5.8372,3.55069 5.85329,8.58588 0.014,4.38514 -1.97241,7.0102 -6.14534,8.12109 -6.84417,1.82201 -7.38919,4.75858 -1.79377,9.66472 7.97416,6.99186 8.22317,10.88623 0.91709,14.34256 -5.31873,2.51617 -7.05358,4.27403 -7.05358,7.14717 0,2.27977 0.19445,2.51487 6.22369,7.52507 1.8927,1.57281 2.08612,2.10253 1.63864,4.48781 -0.88651,4.7255 -3.3922,6.83363 -10.26872,8.63945 -3.36582,0.88389 -9.95639,2.90846 -14.64573,4.49903 -4.68933,1.59057 -11.52871,3.43393 -15.19862,4.09634 -7.84205,1.41546 -31.064572,2.05786 -38.230086,1.05755 z"
   id="path37"
   inkscape:connector-curvature="0" /></svg>